<svg xmlns="http://www.w3.org/2000/svg" width="512" height="512" style="" viewBox="0 0 512 512" data-svgdocument="" id="_13mXY8TYyzRqlaBrG1Rvz" class="fl-svgdocument" x="0" y="0" xmlns:xlink="http://www.w3.org/1999/xlink"><defs id="_hCqMno-eTTCiSDD7Oh-qV" transform="matrix(1.1690337712190948, 0, 0, 1.1690337712190948, -45.868249074791244, 57.867948260192165)"/><g id="_EdX2QS2XiGlSL-4oZIYgc" transform="matrix(0.876200063501509, 0, 0, 0.876200063501509, 27.933583849588334, 31.94175646194268)"><rect id="_Rv1kiquiTWNse6q3I4ivj" x="-0.013" y="0" width="176.769" height="176.769" stroke="none" fill="#57c9b2" transform="matrix(0.5070092082023621, 0, 0, 0.5785200595855713, 216.01812744140625, 143.16058349609375)"/><rect id="_Y8JabJFRxGP6w0Ez3ovYM" x="-0.013" y="0" width="176.769" height="176.769" stroke="none" fill="#e8be87" transform="matrix(0.5511775016784668, 0, 0, 0.34369730949401855, 213.32330322265625, 83.11390686035156)"/><path id="_E5Ak7lSbfhZ_mBXOm2Z6q" d="M39.0801,23.0045 L39.9131,13.0045 L37.0001,13.0045 L37.0001,17.0045 C37.0001,17.5565 36.5521,18.0045 36.0001,18.0045 C35.4481,18.0045 35.0001,17.5565 35.0001,17.0045 L35.0001,13.0045 L33.0001,13.0045 L33.0001,16.0045 C33.0001,16.5565 32.5521,17.0045 32.0001,17.0045 C31.4481,17.0045 31.0001,16.5565 31.0001,16.0045 L31.0001,13.0045 L29.0001,13.0045 L29.0001,19.0045 C29.0001,19.5565 28.5521,20.0045 28.0001,20.0045 C27.4481,20.0045 27.0001,19.5565 27.0001,19.0045 L27.0001,13.0045 L25.0001,13.0045 L25.0001,15.0045 C25.0001,15.5565 24.5521,16.0045 24.0001,16.0045 C23.4481,16.0045 23.0001,15.5565 23.0001,15.0045 L23.0001,13.0045 L20.0871,13.0045 L20.9201,23.0045 L39.0801,23.0045 Z" stroke="none" fill="#1b2829" transform="matrix(3.5065040588378906, 0, 0, 3.5065040588378906, 156.54180908203125, 63.84971618652344)"/><path id="_AN6NaGw8PzL1ZghZ08wTs" d="M25,27.0045 C25.552,27.0045 26,27.4525 26,28.0045 C26,28.5565 25.552,29.0045 25,29.0045 C24.448,29.0045 24,28.5565 24,28.0045 C24,27.4525 24.448,27.0045 25,27.0045 L25,27.0045 Z M30,27.0045 C30.552,27.0045 31,27.4525 31,28.0045 C31,28.5565 30.552,29.0045 30,29.0045 C29.448,29.0045 29,28.5565 29,28.0045 C29,27.4525 29.448,27.0045 30,27.0045 L30,27.0045 Z M35,27.0045 C35.552,27.0045 36,27.4525 36,28.0045 C36,28.5565 35.552,29.0045 35,29.0045 C34.448,29.0045 34,28.5565 34,28.0045 C34,27.4525 34.448,27.0045 35,27.0045 L35,27.0045 Z M21,30.8425 C21,31.2115 21.204,31.5515 21.533,31.7315 C23.903,33.0255 26.115,33.7935 28.108,34.0105 C28.647,34.0695 29.042,34.5465 28.997,35.0875 L27.997,47.0925 C27.972,47.5225 28.147,47.9735 28.493,48.3395 C29.277,49.1715 30.723,49.1715 31.507,48.3395 C31.853,47.9735 32.028,47.5225 32.002,47.0685 L31.003,35.0875 C30.958,34.5465 31.353,34.0695 31.892,34.0105 C33.885,33.7935 36.097,33.0255 38.467,31.7315 C38.796,31.5515 39,31.2115 39,30.8425 L39,25.0045 L21,25.0045 L21,30.8425 Z" stroke="none" fill="#1b2829" transform="matrix(3.5065040588378906, 0, 0, 3.5065040588378906, 155.09397888183594, 62.09621810913086)"/><path id="_GU0Y1cFoAJZgOXXlsXrjq" d="M41,30.8429 C41,31.9429 40.397,32.9559 39.426,33.4859 C37.192,34.7069 35.061,35.5029 33.075,35.8589 L33.997,46.9269 C34.058,47.9599 33.69,48.9409 32.962,49.7119 C32.188,50.5329 31.108,51.0049 30,51.0049 C28.892,51.0049 27.812,50.5329 27.038,49.7119 C26.31,48.9409 25.942,47.9599 26.002,46.9509 L26.925,35.8589 C24.939,35.5029 22.808,34.7069 20.574,33.4859 C19.603,32.9559 19,31.9429 19,30.8429 L19,24.0469 L18.003,12.0879 C17.98,11.8089 18.075,11.5329 18.264,11.3269 C18.454,11.1219 18.72,11.0049 19,11.0049 L41,11.0049 C41.28,11.0049 41.546,11.1219 41.736,11.3269 C41.925,11.5329 42.02,11.8089 41.997,12.0879 L41,24.0469 L41,30.8429 Z M30,0.0049 C13.458,0.0049 0,13.4629 0,30.0049 C0,46.5469 13.458,60.0049 30,60.0049 C46.542,60.0049 60,46.5469 60,30.0049 C60,13.4629 46.542,0.0049 30,0.0049 L30,0.0049 Z" stroke="none" fill="#1b2829" transform="matrix(3.5065040588378906, 0, 0, 3.5065040588378906, 155.09521484375, 63.849178314208984)"/><rect id="_4ZsJFGZS6HGdrMbqqmDpp" y="84.525" width="176.742" height="7.219" stroke="none" fill="#1b2829" transform="matrix(0.7198094725608826, 0, 0, 0.8703781366348267, 198.69676208496094, 65.19718170166016)"/></g><path text="Company" text-anchor="middle" font-size="100" letter-spacing="0" side="left" offset="0.5" dx="0" dy="0" space="preserve" href="" font-family="Lemon" font-scale="contain" transform="matrix(0.7669616173955589, 0, 0, 0.7669616173955589, 256, 345.13726047753573)" x="0" y="0" fill="#1b2829" data-fl-textpath="" id="__lTExSPcj7OR5BMV4so4w" d="M-271.20000000000005-30.7L-271.20000000000005-30.7Q-271.20000000000005-37.7 -268.20000000000005-44.95Q-265.20000000000005-52.2 -259.70000000000005-58.4Q-254.20000000000005-64.6 -245.35000000000005-68.55Q-236.50000000000006-72.5 -227.05000000000004-72.5Q-217.60000000000005-72.5 -212.25000000000006-69Q-206.90000000000003-65.5 -206.90000000000003-59.3Q-206.90000000000003-53.1 -210.95000000000005-49.65Q-215.00000000000006-46.2 -220.20000000000005-46.2Q-225.40000000000003-46.2 -229.55000000000004-48.45Q-233.70000000000005-50.7 -236.20000000000005-54.9L-236.20000000000005-54.9Q-241.60000000000005-52.3 -245.50000000000006-44.7Q-249.40000000000003-37.1 -249.40000000000003-29.45Q-249.40000000000003-21.8 -246.90000000000003-17.35Q-244.40000000000003-12.9 -239.80000000000004-12.9Q-235.20000000000005-12.9 -231.65000000000003-17.6Q-228.10000000000005-22.3 -228.10000000000005-28.9L-228.10000000000005-28.9Q-218.00000000000006-28.9 -213.65000000000003-27.3Q-209.30000000000004-25.7 -209.30000000000004-20.4L-209.30000000000004-20.4Q-209.30000000000004-12.1 -218.30000000000004-4.8Q-227.30000000000004 2.5 -240.90000000000003 2.5Q-254.50000000000006 2.5 -262.85-5.9Q-271.20000000000005-14.3 -271.20000000000005-30.7ZM-152.10000000000002-52.4L-152.10000000000002-52.4Q-146.50000000000003-52.4 -142.45000000000005-47.9Q-138.40000000000003-43.4 -138.40000000000003-34.85Q-138.40000000000003-26.3 -141.40000000000003-19.05Q-144.40000000000003-11.8 -149.30000000000004-7.2Q-154.20000000000005-2.6 -160.40000000000003-0.05Q-166.60000000000002 2.5 -173.10000000000002 2.5L-173.10000000000002 2.5Q-186.20000000000005 2.5 -193.80000000000004-4.7Q-201.40000000000003-11.9 -201.40000000000003-23.8L-201.40000000000003-23.8Q-201.40000000000003-39.9 -191.05000000000004-49.95Q-180.70000000000005-60 -164.70000000000005-60L-164.70000000000005-60Q-161.10000000000002-60 -157.50000000000003-59.2L-157.50000000000003-59.2Q-156.40000000000003-55.9 -156.30000000000004-51.7L-156.30000000000004-51.7Q-154.20000000000005-52.4 -152.10000000000002-52.4ZM-164.40000000000003-38.5L-164.40000000000003-38.5Q-164.40000000000003-41.3 -163.05000000000004-44.8Q-161.70000000000005-48.3 -158.70000000000005-50.4L-158.70000000000005-50.4Q-171.90000000000003-47.6 -176.90000000000003-39.7L-176.90000000000003-39.7Q-181.20000000000005-32.9 -181.20000000000005-25.7Q-181.20000000000005-18.5 -178.25000000000003-14.15Q-175.30000000000004-9.8 -170.70000000000005-9.8L-170.70000000000005-9.8Q-160.50000000000003-9.8 -156.30000000000004-23.1L-156.30000000000004-23.1Q-164.40000000000003-28.1 -164.40000000000003-38.5ZM-65.10000000000004-42.2L-65.10000000000004-42.2L-64.10000000000004-41.7Q-53.400000000000034-60 -37.900000000000034-60L-37.900000000000034-60Q-25.80000000000004-60 -25.80000000000004-47.9L-25.80000000000004-47.9Q-25.80000000000004-42.7 -28.75000000000003-30.3Q-31.70000000000003-17.9 -31.70000000000003-11.6Q-31.70000000000003-5.3 -29.600000000000037-2.4L-29.600000000000037-2.4Q-34.900000000000034 2.5 -40.80000000000004 2.5L-40.80000000000004 2.5Q-52.30000000000004 2.5 -52.30000000000004-9.9L-52.30000000000004-9.9Q-52.30000000000004-14.5 -49.30000000000004-25.5Q-46.30000000000004-36.5 -46.30000000000004-39.8L-46.30000000000004-39.8Q-46.30000000000004-44.3 -49.70000000000003-44.3L-49.70000000000003-44.3Q-52.50000000000003-44.3 -55.95000000000003-41.85Q-59.400000000000034-39.4 -62.55000000000004-35.25Q-65.70000000000003-31.1 -67.85000000000004-24.75Q-70.00000000000003-18.4 -70.00000000000003-11.85Q-70.00000000000003-5.3 -67.90000000000003-2.4L-67.90000000000003-2.4Q-73.20000000000003 2.5 -79.10000000000004 2.5L-79.10000000000004 2.5Q-90.60000000000004 2.5 -90.60000000000004-9.9L-90.60000000000004-9.9Q-90.60000000000004-14.5 -87.60000000000004-25.5Q-84.60000000000004-36.5 -84.60000000000004-39.8L-84.60000000000004-39.8Q-84.60000000000004-44.3 -88.00000000000003-44.3L-88.00000000000003-44.3Q-90.80000000000004-44.3 -94.25000000000003-41.85Q-97.70000000000003-39.4 -100.85000000000004-35.25Q-104.00000000000003-31.1 -106.15000000000003-24.75Q-108.30000000000004-18.4 -108.30000000000004-11.85Q-108.30000000000004-5.3 -106.20000000000003-2.4L-106.20000000000003-2.4Q-111.50000000000003 2.5 -117.40000000000003 2.5L-117.40000000000003 2.5Q-128.90000000000003 2.5 -128.90000000000003-9.9L-128.90000000000003-9.9Q-128.90000000000003-13.9 -126.85000000000004-25.4Q-124.80000000000004-36.9 -122.60000000000004-46.4L-122.60000000000004-46.4L-127.80000000000004-54.4Q-117.90000000000003-60 -109.50000000000003-60Q-101.10000000000004-60 -101.10000000000004-52.4L-101.10000000000004-52.4Q-101.10000000000004-47.4 -103.40000000000003-42.2L-103.40000000000003-42.2L-102.40000000000003-41.7Q-91.70000000000003-60 -76.20000000000003-60L-76.20000000000003-60Q-70.60000000000004-60 -67.35000000000004-57.2Q-64.10000000000004-54.4 -64.10000000000004-48.8L-64.10000000000004-48.8Q-64.10000000000004-45.8 -65.10000000000004-42.2ZM-4.700000000000024 19.9Q-10.900000000000025 19.9 -13.350000000000026 16.85Q-15.800000000000026 13.8 -15.800000000000026 8.05Q-15.800000000000026 2.3 -13.350000000000026-15.1Q-10.900000000000025-32.5 -8.600000000000026-44.8L-8.600000000000026-44.8L-14.200000000000026-52.8Q-8.000000000000025-56.4 -3.500000000000025-58.25Q 0.9999999999999751-60.1  5.399999999999974-60.1L 5.399999999999974-60.1Q 12.599999999999973-60.1  12.599999999999973-50.6L 12.599999999999973-50.6Q 12.599999999999973-49.3  12.199999999999974-45.3L 12.199999999999974-45.3L 13.199999999999974-44.8Q 16.099999999999973-52  21.599999999999973-56.05Q 27.099999999999973-60.1  34.549999999999976-60.1Q 41.99999999999997-60.1  46.39999999999998-53.35Q 50.79999999999997-46.6  50.79999999999997-36.6L 50.79999999999997-36.6Q 50.79999999999997-23.2  41.39999999999998-12.2L 41.39999999999998-12.2Q 36.799999999999976-6.8  29.099999999999973-3.45Q 21.399999999999977-0.1  11.899999999999977-0.1L 11.899999999999977-0.1Q 8.999999999999975-0.1  4.299999999999976-0.6L 4.299999999999976-0.6Q 3.999999999999975 2.9  3.999999999999975 5.9L 3.999999999999975 5.9Q 3.999999999999975 12.3  7.099999999999973 15L 7.099999999999973 15Q 1.4999999999999751 19.9 -4.700000000000024 19.9ZM 8.399999999999974-21.5L 8.399999999999974-21.5L 6.099999999999973-9.9Q 18.199999999999974-10.2  25.449999999999974-17.85Q 32.699999999999974-25.5  32.699999999999974-34.6L 32.699999999999974-34.6Q 32.699999999999974-39.3  30.849999999999973-42.15Q 28.99999999999997-45  25.49999999999997-45L 25.49999999999997-45Q 13.099999999999973-45  8.399999999999974-21.5ZM 98-12.3L 98-12.3L 97-12.8Q 94.29999999999998-5.6  89.25-1.55Q 84.19999999999999 2.5  77.99999999999999 2.5L 77.99999999999999 2.5Q 69.49999999999999 2.5  64.39999999999999-3.9Q 59.29999999999999-10.3  59.29999999999999-21L 59.29999999999999-21Q 59.29999999999999-37.6  70.44999999999999-48.8Q 81.6-60  98.19999999999999-60L 98.19999999999999-60Q 102.5-60  106.1-59.2L 106.1-59.2Q 106.69999999999999-56.4  106.79999999999998-54.3L 106.79999999999998-54.3Q 111.79999999999998-57.5  117.1-57.5L 117.1-57.5Q 124.39999999999998-57.5  124.39999999999998-49.6L 124.39999999999998-49.6Q 124.39999999999998-46.8  121.25-32.7Q 118.1-18.6  118.1-11.8Q 118.1-5  121.19999999999999-2.4L 121.19999999999999-2.4Q 115.6 2.5  109.54999999999998 2.5Q 103.5 2.5  100.75-1.1Q 98-4.7  98-12.3ZM 78.1-25.9L 78.1-25.9Q 78.1-21  80.14999999999999-18.35Q 82.19999999999999-15.7  85.99999999999999-15.7Q 89.79999999999998-15.7  93.5-18.5Q 97.19999999999999-21.3  99.69999999999999-26.2L 99.69999999999999-26.2Q 100.6-36.3  103.6-50.1L 103.6-50.1Q 93.5-50.1  85.79999999999998-42.8Q 78.1-35.5  78.1-25.9ZM 145.89999999999998 2.5Q 139.99999999999997 2.5  137.2-0.6Q 134.39999999999998-3.7  134.39999999999998-8.8Q 134.39999999999998-13.9  136.45-25.4Q 138.49999999999997-36.9  140.7-46.4L 140.7-46.4L 135.49999999999997-54.4Q 145.39999999999998-60  153.79999999999998-60Q 162.2-60  162.2-52.4L 162.2-52.4Q 162.2-47.4  159.89999999999998-42.2L 159.89999999999998-42.2L 160.89999999999998-41.7Q 171.59999999999997-60  188.09999999999997-60L 188.09999999999997-60Q 200.2-60  200.2-47.9L 200.2-47.9Q 200.2-42.7  197.24999999999997-30.3Q 194.29999999999998-17.9  194.29999999999998-11.6Q 194.29999999999998-5.3  196.39999999999998-2.4L 196.39999999999998-2.4Q 191.09999999999997 2.5  185.2 2.5L 185.2 2.5Q 173.7 2.5  173.7-9.9L 173.7-9.9Q 173.7-14.5  176.7-25.5Q 179.7-36.5  179.7-39.8L 179.7-39.8Q 179.7-44.3  176.29999999999998-44.3L 176.29999999999998-44.3Q 173.49999999999997-44.3  169.89999999999998-41.85Q 166.29999999999998-39.4  162.95-35.25Q 159.59999999999997-31.1  157.29999999999998-24.75Q 154.99999999999997-18.4  154.99999999999997-11.85Q 154.99999999999997-5.3  157.09999999999997-2.4L 157.09999999999997-2.4Q 151.79999999999998 2.5  145.89999999999998 2.5ZM 237.89999999999998-2L 237.89999999999998-2Q 233.2-0.3  228.5-0.3Q 223.79999999999998-0.3  220.6-3.1Q 217.39999999999998-5.9  216.89999999999998-10.7Q 216.39999999999998-15.5  216-24.65Q 215.6-33.8  215.2-37.6L 215.2-37.6Q 213.89999999999998-50.3  207.2-55.7L 207.2-55.7Q 211.89999999999998-60  219-60L 219-60Q 222.89999999999998-60  225.79999999999998-57.95Q 228.7-55.9  230.45-52.55Q 232.2-49.2  233.29999999999998-43.9L 233.29999999999998-43.9Q 235-35.1  235-20.1L 235-20.1Q 235-16.4  234.7-11.4L 234.7-11.4L 240.5-11.4Q 250.79999999999998-39.2  250.79999999999998-49.3L 250.79999999999998-49.3Q 250.79999999999998-52.7  249.29999999999998-55.7L 249.29999999999998-55.7Q 256.3-60  261.5-60L 261.5-60Q 271.2-60  271.2-48.8L 271.2-48.8Q 271.2-39.9  263-17.5L 263-17.5Q 261.5-13.4  261.3-12.7L 261.3-12.7Q 248.6 23.5  225.2 23.5L 225.2 23.5Q 218.1 23.5  213.5 20.45Q 208.89999999999998 17.4  208.89999999999998 12.45Q 208.89999999999998 7.5  212.6 2.1L 212.6 2.1Q 217.39999999999998 8.9  224.6 8.9L 224.6 8.9Q 228.7 8.9  232.25 6.2Q 235.79999999999998 3.5  237.89999999999998-2Z"/><path id="_os9NhCbXVmvIT55wQ8GMa" fill="#1b2829" transform="matrix(0.7669616173955589, 0, 0, 0.7669616173955589, 255.23304417964533, 422.1044356540246)" text="Name" text-anchor="middle" font-size="100" letter-spacing="0" side="left" offset="0.5" dx="0" dy="0" space="preserve" href="" font-family="Lemon" font-scale="contain" x="0" y="0" data-fl-textpath="" d="M-111.90000000000002-15.7L-111.90000000000002-15.7L-109.50000000000001-17.3Q-116.00000000000001-29.8 -116.00000000000001-44.7L-116.00000000000001-44.7Q-116.00000000000001-56.3 -110.25000000000001-64.4Q-104.50000000000001-72.5 -94.00000000000001-72.5L-94.00000000000001-72.5Q-88.50000000000001-72.5 -84.70000000000002-70.6L-84.70000000000002-70.6Q-85.70000000000002-65 -88.30000000000001-51.1L-88.30000000000001-51.1Q-93.90000000000002-21.2 -93.90000000000002-16.8L-93.90000000000002-16.8Q-93.90000000000002-7.3 -90.70000000000002-2.6L-90.70000000000002-2.6Q-95.10000000000002 0.3 -98.80000000000001 1.4Q-102.50000000000001 2.5 -108.35000000000002 2.5Q-114.20000000000002 2.5 -118.95000000000002 0Q-123.70000000000002-2.5 -126.75000000000001-6.65Q-129.8-10.8 -131.90000000000003-16.9L-131.90000000000003-16.9Q-135.60000000000002-27.6 -136.40000000000003-44.1L-136.40000000000003-44.1L-138.00000000000003-44.1Q-142.60000000000002-23.3 -142.60000000000002-15Q-142.60000000000002-6.7 -139.60000000000002-1.9L-139.60000000000002-1.9Q-145.60000000000002 2.6 -152.10000000000002 2.6Q-158.60000000000002 2.6 -161.4-1.15Q-164.20000000000002-4.9 -164.20000000000002-12.35Q-164.20000000000002-19.8 -157.9-54.6L-157.9-54.6L-163.20000000000002-65.3Q-152.00000000000003-72.5 -143.20000000000002-72.5Q-134.40000000000003-72.5 -129.90000000000003-69.45Q-125.40000000000002-66.4 -123.60000000000002-60.5Q-121.80000000000001-54.6 -120.95000000000002-48.05Q-120.10000000000002-41.5 -117.95000000000002-32.3Q-115.80000000000001-23.1 -111.90000000000002-15.7ZM-40.000000000000014-12.3L-40.000000000000014-12.3L-41.000000000000014-12.8Q-43.70000000000002-5.6 -48.750000000000014-1.55Q-53.80000000000002 2.5 -60.000000000000014 2.5L-60.000000000000014 2.5Q-68.50000000000001 2.5 -73.60000000000002-3.9Q-78.70000000000002-10.3 -78.70000000000002-21L-78.70000000000002-21Q-78.70000000000002-37.6 -67.55000000000001-48.8Q-56.40000000000002-60 -39.80000000000002-60L-39.80000000000002-60Q-35.500000000000014-60 -31.90000000000002-59.2L-31.90000000000002-59.2Q-31.30000000000002-56.4 -31.200000000000017-54.3L-31.200000000000017-54.3Q-26.200000000000017-57.5 -20.90000000000002-57.5L-20.90000000000002-57.5Q-13.600000000000023-57.5 -13.600000000000023-49.6L-13.600000000000023-49.6Q-13.600000000000023-46.8 -16.750000000000014-32.7Q-19.90000000000002-18.6 -19.90000000000002-11.8Q-19.90000000000002-5 -16.80000000000001-2.4L-16.80000000000001-2.4Q-22.40000000000002 2.5 -28.450000000000017 2.5Q-34.500000000000014 2.5 -37.250000000000014-1.1Q-40.000000000000014-4.7 -40.000000000000014-12.3ZM-59.90000000000002-25.9L-59.90000000000002-25.9Q-59.90000000000002-21 -57.850000000000016-18.35Q-55.80000000000002-15.7 -52.000000000000014-15.7Q-48.20000000000002-15.7 -44.500000000000014-18.5Q-40.80000000000002-21.3 -38.30000000000002-26.2L-38.30000000000002-26.2Q-37.40000000000002-36.3 -34.40000000000002-50.1L-34.40000000000002-50.1Q-44.500000000000014-50.1 -52.20000000000002-42.8Q-59.90000000000002-35.5 -59.90000000000002-25.9ZM 60.19999999999999-42.2L 60.19999999999999-42.2L 61.19999999999999-41.7Q 71.89999999999999-60  87.39999999999999-60L 87.39999999999999-60Q 99.49999999999999-60  99.49999999999999-47.9L 99.49999999999999-47.9Q 99.49999999999999-42.7  96.55-30.3Q 93.6-17.9  93.6-11.6Q 93.6-5.3  95.69999999999999-2.4L 95.69999999999999-2.4Q 90.39999999999999 2.5  84.49999999999999 2.5L 84.49999999999999 2.5Q 72.99999999999999 2.5  72.99999999999999-9.9L 72.99999999999999-9.9Q 72.99999999999999-14.5  75.99999999999999-25.5Q 78.99999999999999-36.5  78.99999999999999-39.8L 78.99999999999999-39.8Q 78.99999999999999-44.3  75.6-44.3L 75.6-44.3Q 72.8-44.3  69.35-41.85Q 65.89999999999999-39.4  62.749999999999986-35.25Q 59.599999999999994-31.1  57.44999999999999-24.75Q 55.3-18.4  55.3-11.85Q 55.3-5.3  57.39999999999999-2.4L 57.39999999999999-2.4Q 52.099999999999994 2.5  46.19999999999999 2.5L 46.19999999999999 2.5Q 34.69999999999999 2.5  34.69999999999999-9.9L 34.69999999999999-9.9Q 34.69999999999999-14.5  37.69999999999999-25.5Q 40.69999999999999-36.5  40.69999999999999-39.8L 40.69999999999999-39.8Q 40.69999999999999-44.3  37.29999999999999-44.3L 37.29999999999999-44.3Q 34.49999999999999-44.3  31.04999999999999-41.85Q 27.599999999999994-39.4  24.44999999999999-35.25Q 21.29999999999999-31.1  19.14999999999999-24.75Q 16.999999999999993-18.4  16.999999999999993-11.85Q 16.999999999999993-5.3  19.09999999999999-2.4L 19.09999999999999-2.4Q 13.79999999999999 2.5  7.8999999999999915 2.5L 7.8999999999999915 2.5Q-3.6000000000000085 2.5 -3.6000000000000085-9.9L-3.6000000000000085-9.9Q-3.6000000000000085-13.9 -1.5500000000000087-25.4Q 0.4999999999999911-36.9  2.699999999999992-46.4L 2.699999999999992-46.4L-2.500000000000009-54.4Q 7.3999999999999915-60  15.79999999999999-60Q 24.19999999999999-60  24.19999999999999-52.4L 24.19999999999999-52.4Q 24.19999999999999-47.4  21.89999999999999-42.2L 21.89999999999999-42.2L 22.89999999999999-41.7Q 33.599999999999994-60  49.099999999999994-60L 49.099999999999994-60Q 54.69999999999999-60  57.94999999999999-57.2Q 61.19999999999999-54.4  61.19999999999999-48.8L 61.19999999999999-48.8Q 61.19999999999999-45.8  60.19999999999999-42.2ZM 137.1 2.5L 137.1 2.5Q 123.4 2.5  115.95-4.6Q 108.5-11.7  108.5-23.8L 108.5-23.8Q 108.5-39.9  119.55-49.95Q 130.6-60  147.3-60L 147.3-60Q 156.6-60  161.4-55.85Q 166.2-51.7  166.2-44.9L 166.2-44.9Q 166.2-35.6  157.15-29.45Q 148.1-23.3  129.2-23.2L 129.2-23.2Q 129.5-16.8  132.1-13.15Q 134.7-9.5  138.6-9.5Q 142.5-9.5  145.35-12.1Q 148.2-14.7  148.2-20.6L 148.2-20.6Q 162.8-20.6  162.8-13.7L 162.8-13.7Q 162.8-7.8  155.6-2.65Q 148.4 2.5  137.1 2.5ZM 145.6-48.3L 145.6-48.3Q 140.5-48.3  136.25-43.2Q 132-38.1  130.1-31.2L 130.1-31.2Q 140.1-32  145.15-35.75Q 150.2-39.5  150.2-43.7L 150.2-43.7Q 150.2-45.7  148.95-47Q 147.7-48.3  145.6-48.3Z"/></svg>